<mxfile host="app.diagrams.net" modified="2024-06-13T05:27:50.648Z" agent="Mozilla/5.0 (Windows NT 10.0; Win64; x64; rv:127.0) Gecko/20100101 Firefox/127.0" etag="Wd2iHnfRAh7f5ccM-IV2" version="24.5.4" type="github">
  <diagram name="Page-1" id="qvTkZvE32EcQkdRtr3g3">
    <mxGraphModel dx="1434" dy="781" grid="0" gridSize="10" guides="1" tooltips="1" connect="1" arrows="1" fold="1" page="1" pageScale="1" pageWidth="850" pageHeight="1100" math="0" shadow="0">
      <root>
        <mxCell id="0" />
        <mxCell id="1" parent="0" />
        <mxCell id="5-9SQXIBTp-EE6p_0A8F-1" value="" style="endArrow=none;dashed=1;html=1;dashPattern=1 3;strokeWidth=2;rounded=0;" parent="1" source="5-9SQXIBTp-EE6p_0A8F-5" edge="1">
          <mxGeometry width="50" height="50" relative="1" as="geometry">
            <mxPoint x="229" y="360" as="sourcePoint" />
            <mxPoint x="94" y="747" as="targetPoint" />
          </mxGeometry>
        </mxCell>
        <mxCell id="5-9SQXIBTp-EE6p_0A8F-2" value="" style="endArrow=none;dashed=1;html=1;dashPattern=1 3;strokeWidth=2;rounded=0;entryX=0.5;entryY=1;entryDx=0;entryDy=0;" parent="1" target="5-9SQXIBTp-EE6p_0A8F-6" edge="1">
          <mxGeometry width="50" height="50" relative="1" as="geometry">
            <mxPoint x="229" y="757" as="sourcePoint" />
            <mxPoint x="279" y="310" as="targetPoint" />
          </mxGeometry>
        </mxCell>
        <mxCell id="5-9SQXIBTp-EE6p_0A8F-3" value="" style="endArrow=none;dashed=1;html=1;dashPattern=1 3;strokeWidth=2;rounded=0;entryX=0.5;entryY=1;entryDx=0;entryDy=0;" parent="1" target="5-9SQXIBTp-EE6p_0A8F-9" edge="1">
          <mxGeometry width="50" height="50" relative="1" as="geometry">
            <mxPoint x="428" y="760" as="sourcePoint" />
            <mxPoint x="279" y="310" as="targetPoint" />
          </mxGeometry>
        </mxCell>
        <mxCell id="5-9SQXIBTp-EE6p_0A8F-4" value="" style="endArrow=none;dashed=1;html=1;dashPattern=1 3;strokeWidth=2;rounded=0;entryX=0.5;entryY=1;entryDx=0;entryDy=0;" parent="1" target="5-9SQXIBTp-EE6p_0A8F-11" edge="1">
          <mxGeometry width="50" height="50" relative="1" as="geometry">
            <mxPoint x="628" y="768" as="sourcePoint" />
            <mxPoint x="279" y="310" as="targetPoint" />
          </mxGeometry>
        </mxCell>
        <mxCell id="5-9SQXIBTp-EE6p_0A8F-5" value="&lt;div&gt;Администратор&lt;/div&gt;" style="shape=umlActor;verticalLabelPosition=bottom;verticalAlign=top;html=1;outlineConnect=0;align=center;horizontal=1;labelPosition=center;" parent="1" vertex="1">
          <mxGeometry x="79" y="80" width="30" height="60" as="geometry" />
        </mxCell>
        <mxCell id="5-9SQXIBTp-EE6p_0A8F-6" value="i: Интерфейс" style="rounded=0;whiteSpace=wrap;html=1;" parent="1" vertex="1">
          <mxGeometry x="169" y="80" width="120" height="60" as="geometry" />
        </mxCell>
        <mxCell id="5-9SQXIBTp-EE6p_0A8F-7" value="" style="html=1;points=[[0,0,0,0,5],[0,1,0,0,-5],[1,0,0,0,5],[1,1,0,0,-5]];perimeter=orthogonalPerimeter;outlineConnect=0;targetShapes=umlLifeline;portConstraint=eastwest;newEdgeStyle={&quot;curved&quot;:0,&quot;rounded&quot;:0};" parent="1" vertex="1">
          <mxGeometry x="89" y="210" width="10" height="490" as="geometry" />
        </mxCell>
        <mxCell id="5-9SQXIBTp-EE6p_0A8F-8" value="" style="html=1;points=[[0,0,0,0,5],[0,1,0,0,-5],[1,0,0,0,5],[1,1,0,0,-5]];perimeter=orthogonalPerimeter;outlineConnect=0;targetShapes=umlLifeline;portConstraint=eastwest;newEdgeStyle={&quot;curved&quot;:0,&quot;rounded&quot;:0};" parent="1" vertex="1">
          <mxGeometry x="224" y="230" width="10" height="470" as="geometry" />
        </mxCell>
        <mxCell id="5-9SQXIBTp-EE6p_0A8F-9" value="back: Backend API" style="rounded=0;whiteSpace=wrap;html=1;" parent="1" vertex="1">
          <mxGeometry x="369" y="80" width="120" height="60" as="geometry" />
        </mxCell>
        <mxCell id="5-9SQXIBTp-EE6p_0A8F-10" value="" style="html=1;points=[[0,0,0,0,5],[0,1,0,0,-5],[1,0,0,0,5],[1,1,0,0,-5]];perimeter=orthogonalPerimeter;outlineConnect=0;targetShapes=umlLifeline;portConstraint=eastwest;newEdgeStyle={&quot;curved&quot;:0,&quot;rounded&quot;:0};" parent="1" vertex="1">
          <mxGeometry x="424" y="538" width="10" height="152" as="geometry" />
        </mxCell>
        <mxCell id="5-9SQXIBTp-EE6p_0A8F-11" value="db: База данных" style="rounded=0;whiteSpace=wrap;html=1;" parent="1" vertex="1">
          <mxGeometry x="569" y="80" width="120" height="60" as="geometry" />
        </mxCell>
        <mxCell id="5-9SQXIBTp-EE6p_0A8F-12" value="" style="html=1;points=[[0,0,0,0,5],[0,1,0,0,-5],[1,0,0,0,5],[1,1,0,0,-5]];perimeter=orthogonalPerimeter;outlineConnect=0;targetShapes=umlLifeline;portConstraint=eastwest;newEdgeStyle={&quot;curved&quot;:0,&quot;rounded&quot;:0};" parent="1" vertex="1">
          <mxGeometry x="624" y="565" width="10" height="125" as="geometry" />
        </mxCell>
        <mxCell id="5-9SQXIBTp-EE6p_0A8F-13" value="" style="endArrow=classic;html=1;rounded=0;" parent="1" edge="1">
          <mxGeometry width="50" height="50" relative="1" as="geometry">
            <mxPoint x="234" y="557.16" as="sourcePoint" />
            <mxPoint x="424" y="557.16" as="targetPoint" />
          </mxGeometry>
        </mxCell>
        <mxCell id="5-9SQXIBTp-EE6p_0A8F-14" value="запрос(&quot;create_medium&quot;)" style="edgeLabel;html=1;align=center;verticalAlign=middle;resizable=0;points=[];" parent="5-9SQXIBTp-EE6p_0A8F-13" vertex="1" connectable="0">
          <mxGeometry x="-0.3158" relative="1" as="geometry">
            <mxPoint x="31" y="19" as="offset" />
          </mxGeometry>
        </mxCell>
        <mxCell id="5-9SQXIBTp-EE6p_0A8F-15" value="" style="endArrow=classic;html=1;rounded=0;entryX=-0.4;entryY=0.697;entryDx=0;entryDy=0;entryPerimeter=0;" parent="1" edge="1">
          <mxGeometry width="50" height="50" relative="1" as="geometry">
            <mxPoint x="438" y="580.001" as="sourcePoint" />
            <mxPoint x="624" y="580.001" as="targetPoint" />
          </mxGeometry>
        </mxCell>
        <mxCell id="5-9SQXIBTp-EE6p_0A8F-16" value="создатьПитСреду()" style="edgeLabel;html=1;align=center;verticalAlign=middle;resizable=0;points=[];" parent="5-9SQXIBTp-EE6p_0A8F-15" vertex="1" connectable="0">
          <mxGeometry x="0.2366" y="-2" relative="1" as="geometry">
            <mxPoint x="-19" y="18" as="offset" />
          </mxGeometry>
        </mxCell>
        <mxCell id="5-9SQXIBTp-EE6p_0A8F-17" value="вернутьСозданнуюПитСреду()" style="html=1;verticalAlign=bottom;endArrow=open;dashed=1;endSize=8;curved=0;rounded=0;" parent="1" edge="1">
          <mxGeometry relative="1" as="geometry">
            <mxPoint x="624" y="650" as="sourcePoint" />
            <mxPoint x="434" y="650" as="targetPoint" />
            <Array as="points">
              <mxPoint x="530" y="650" />
            </Array>
          </mxGeometry>
        </mxCell>
        <mxCell id="5-9SQXIBTp-EE6p_0A8F-18" value="вернутьСостояниеЗапроса()" style="html=1;verticalAlign=bottom;endArrow=open;dashed=1;endSize=8;curved=0;rounded=0;" parent="1" edge="1">
          <mxGeometry relative="1" as="geometry">
            <mxPoint x="424" y="670" as="sourcePoint" />
            <mxPoint x="234" y="670" as="targetPoint" />
          </mxGeometry>
        </mxCell>
        <mxCell id="5-9SQXIBTp-EE6p_0A8F-19" value="уведомить(&quot;success&quot;)" style="html=1;verticalAlign=bottom;endArrow=open;dashed=1;endSize=8;curved=0;rounded=0;entryX=1;entryY=1;entryDx=0;entryDy=-5;entryPerimeter=0;" parent="1" source="5-9SQXIBTp-EE6p_0A8F-8" target="5-9SQXIBTp-EE6p_0A8F-7" edge="1">
          <mxGeometry relative="1" as="geometry">
            <mxPoint x="190" y="593" as="sourcePoint" />
            <mxPoint x="110" y="593" as="targetPoint" />
          </mxGeometry>
        </mxCell>
        <mxCell id="5-9SQXIBTp-EE6p_0A8F-20" value="" style="endArrow=classic;html=1;rounded=0;" parent="1" edge="1">
          <mxGeometry width="50" height="50" relative="1" as="geometry">
            <mxPoint x="99" y="280" as="sourcePoint" />
            <mxPoint x="224" y="280" as="targetPoint" />
          </mxGeometry>
        </mxCell>
        <mxCell id="5-9SQXIBTp-EE6p_0A8F-21" value="ввестиНазвание()" style="edgeLabel;html=1;align=center;verticalAlign=middle;resizable=0;points=[];" parent="5-9SQXIBTp-EE6p_0A8F-20" vertex="1" connectable="0">
          <mxGeometry x="-0.056" relative="1" as="geometry">
            <mxPoint y="-30" as="offset" />
          </mxGeometry>
        </mxCell>
        <mxCell id="5-9SQXIBTp-EE6p_0A8F-22" value="" style="endArrow=classic;html=1;rounded=0;" parent="1" edge="1">
          <mxGeometry width="50" height="50" relative="1" as="geometry">
            <mxPoint x="99" y="340" as="sourcePoint" />
            <mxPoint x="224" y="340" as="targetPoint" />
          </mxGeometry>
        </mxCell>
        <mxCell id="5-9SQXIBTp-EE6p_0A8F-34" value="ввестиОписание()" style="edgeLabel;html=1;align=center;verticalAlign=middle;resizable=0;points=[];" parent="5-9SQXIBTp-EE6p_0A8F-22" vertex="1" connectable="0">
          <mxGeometry x="-0.0971" y="1" relative="1" as="geometry">
            <mxPoint x="4" y="-19" as="offset" />
          </mxGeometry>
        </mxCell>
        <mxCell id="5-9SQXIBTp-EE6p_0A8F-26" value="валидироватьПоля()" style="html=1;align=left;spacingLeft=2;endArrow=block;rounded=0;edgeStyle=orthogonalEdgeStyle;curved=0;rounded=0;" parent="1" target="5-9SQXIBTp-EE6p_0A8F-8" edge="1">
          <mxGeometry x="0.5385" y="19" relative="1" as="geometry">
            <mxPoint x="234" y="410" as="sourcePoint" />
            <Array as="points">
              <mxPoint x="234" y="450" />
              <mxPoint x="264" y="450" />
              <mxPoint x="264" y="480" />
            </Array>
            <mxPoint x="239" y="440" as="targetPoint" />
            <mxPoint x="16" y="-9" as="offset" />
          </mxGeometry>
        </mxCell>
        <mxCell id="5-9SQXIBTp-EE6p_0A8F-27" value="уведомить(&quot;success&quot;)" style="html=1;verticalAlign=bottom;endArrow=open;dashed=1;endSize=8;curved=0;rounded=0;" parent="1" edge="1">
          <mxGeometry relative="1" as="geometry">
            <mxPoint x="224" y="500" as="sourcePoint" />
            <mxPoint x="99" y="500" as="targetPoint" />
          </mxGeometry>
        </mxCell>
        <mxCell id="5-9SQXIBTp-EE6p_0A8F-28" value="" style="endArrow=classic;html=1;rounded=0;" parent="1" edge="1">
          <mxGeometry width="50" height="50" relative="1" as="geometry">
            <mxPoint x="99" y="520" as="sourcePoint" />
            <mxPoint x="224" y="520" as="targetPoint" />
          </mxGeometry>
        </mxCell>
        <mxCell id="5-9SQXIBTp-EE6p_0A8F-29" value="нажатьНаКнопкуСоздать()" style="edgeLabel;html=1;align=center;verticalAlign=middle;resizable=0;points=[];" parent="5-9SQXIBTp-EE6p_0A8F-28" vertex="1" connectable="0">
          <mxGeometry x="0.1872" y="-2" relative="1" as="geometry">
            <mxPoint x="-13" y="28" as="offset" />
          </mxGeometry>
        </mxCell>
        <mxCell id="5-9SQXIBTp-EE6p_0A8F-31" value="loop" style="shape=umlFrame;whiteSpace=wrap;html=1;pointerEvents=0;" parent="1" vertex="1">
          <mxGeometry x="20" y="355" width="270" height="85" as="geometry" />
        </mxCell>
        <mxCell id="5-9SQXIBTp-EE6p_0A8F-35" value="" style="endArrow=classic;html=1;rounded=0;" parent="1" edge="1">
          <mxGeometry width="50" height="50" relative="1" as="geometry">
            <mxPoint x="99" y="389.71" as="sourcePoint" />
            <mxPoint x="224" y="389.71" as="targetPoint" />
          </mxGeometry>
        </mxCell>
        <mxCell id="5-9SQXIBTp-EE6p_0A8F-36" value="добавитьКомпонент()" style="edgeLabel;html=1;align=center;verticalAlign=middle;resizable=0;points=[];" parent="5-9SQXIBTp-EE6p_0A8F-35" vertex="1" connectable="0">
          <mxGeometry x="-0.2983" y="1" relative="1" as="geometry">
            <mxPoint x="17" y="31" as="offset" />
          </mxGeometry>
        </mxCell>
      </root>
    </mxGraphModel>
  </diagram>
</mxfile>
